<?xml version="1.0" standalone="no"?>
<!DOCTYPE svg PUBLIC "-//W3C//DTD SVG 20010904//EN"
 "http://www.w3.org/TR/2001/REC-SVG-20010904/DTD/svg10.dtd">
<svg version="1.0" xmlns="http://www.w3.org/2000/svg"
 width="680.000000pt" height="680.000000pt" viewBox="0 0 680.000000 680.000000"
 preserveAspectRatio="xMidYMid meet">
<metadata>
Created by potrace 1.14, written by Peter Selinger 2001-2017
</metadata>
<g transform="translate(0.000000,680.000000) scale(0.100000,-0.100000)"
fill="#000000" stroke="none">
<path d="M5035 6774 c-280 -60 -506 -174 -721 -362 -174 -153 -295 -309 -354
-458 -37 -91 -70 -215 -70 -261 0 -25 -7 -36 -32 -52 -46 -28 -203 -189 -226
-231 -18 -33 -22 -35 -85 -42 -163 -16 -295 -100 -388 -246 -33 -52 -36 -80
-13 -123 13 -26 13 -34 2 -49 -82 -112 -105 -162 -93 -202 10 -32 55 -78 77
-78 25 0 32 -22 21 -67 -7 -32 -15 -40 -46 -50 -23 -8 -51 -10 -74 -5 l-37 8
-12 89 c-42 311 -233 595 -486 722 -147 74 -243 79 -317 17 -69 -57 -79 -189
-27 -349 62 -189 57 -300 -20 -536 -51 -158 -98 -238 -175 -299 -28 -22 -73
-69 -98 -103 -40 -54 -60 -69 -149 -117 -105 -57 -238 -146 -329 -222 -38 -32
-54 -53 -62 -85 -20 -77 -14 -78 56 -13 91 84 246 200 328 245 36 21 68 36 69
34 2 -2 -5 -48 -15 -101 -13 -71 -16 -105 -9 -123 19 -50 12 -82 -22 -107 -99
-70 -181 -188 -214 -306 -16 -57 -24 -68 -78 -114 -34 -28 -83 -70 -109 -95
-44 -41 -47 -47 -41 -79 l6 -34 41 33 c23 17 69 58 103 90 34 31 64 57 66 57
3 0 10 -19 17 -42 7 -24 23 -61 36 -84 l24 -41 -55 -57 c-63 -65 -87 -113
-104 -203 -20 -114 21 -258 112 -390 52 -77 207 -231 292 -291 67 -47 87 -56
133 -60 74 -6 71 17 -6 58 -131 70 -300 234 -394 381 -83 131 -101 277 -47
385 34 68 90 129 167 180 57 38 74 72 27 54 -14 -6 -39 -10 -55 -10 -27 0 -33
6 -57 58 -37 79 -37 182 0 263 54 119 205 257 333 305 46 18 48 19 21 22 -16
2 -49 -1 -73 -7 -24 -7 -48 -9 -54 -6 -14 9 -11 86 7 173 42 208 185 363 375
406 399 90 1000 -94 1170 -357 64 -99 84 -173 84 -312 0 -131 -14 -189 -63
-254 -23 -31 -26 -32 -35 -15 -37 71 -124 178 -179 220 -104 81 -226 146 -358
190 -108 37 -229 41 -275 9 l-30 -20 105 -6 c75 -4 125 -13 175 -31 246 -88
403 -210 504 -391 59 -104 52 -248 -16 -366 -40 -68 -100 -128 -147 -146 l-43
-17 -81 81 c-67 66 -99 88 -184 130 -57 28 -142 62 -190 76 -98 27 -250 42
-288 27 -20 -8 -11 -10 55 -16 44 -4 108 -14 142 -22 219 -49 446 -202 511
-343 23 -50 24 -62 19 -160 -6 -133 -41 -235 -123 -357 -76 -116 -115 -139
-329 -196 -117 -32 -312 -32 -372 -1 -49 26 -82 69 -90 116 -4 26 0 40 20 63
l25 29 149 -3 c137 -3 151 -5 183 -28 46 -31 87 -39 125 -23 l30 11 -52 13
c-29 6 -59 18 -68 25 -14 12 -9 16 37 30 71 22 144 58 160 78 11 14 10 15 -7
8 -90 -37 -157 -49 -315 -53 -140 -4 -180 -2 -265 16 -105 21 -241 70 -321
115 -26 14 -49 24 -52 21 -9 -9 69 -83 118 -114 25 -16 68 -37 95 -46 75 -27
76 -29 69 -99 -7 -71 6 -113 55 -168 17 -20 31 -40 31 -45 0 -35 -123 -145
-207 -186 l-43 -21 22 -23 c12 -13 29 -23 38 -23 23 0 92 50 165 120 86 81
114 94 194 86 36 -3 91 -2 121 3 30 5 58 7 63 4 4 -2 -14 -30 -40 -61 -246
-295 -330 -368 -547 -477 -79 -40 -103 -57 -117 -85 -21 -38 -25 -122 -10
-164 8 -19 6 -30 -8 -48 -80 -102 -66 -164 61 -283 84 -79 159 -127 252 -161
80 -29 213 -46 288 -38 l58 7 19 -45 c23 -55 64 -90 155 -133 102 -49 176 -67
306 -72 227 -10 421 60 656 237 l52 39 6 -30 c11 -57 94 -63 115 -7 12 33 2
58 -32 78 l-29 18 43 29 c37 24 51 28 108 26 36 -1 101 5 144 13 96 19 118 14
111 -26 -5 -20 0 -34 15 -49 40 -40 111 -15 111 39 0 27 2 28 33 24 17 -2 97
-13 177 -24 382 -52 456 -59 733 -67 l198 -6 36 -43 c47 -58 146 -123 282
-185 124 -56 184 -67 269 -49 54 11 63 10 133 -14 143 -49 243 -33 330 54 76
75 94 128 86 259 -3 53 -9 106 -12 117 -6 19 -2 22 42 29 58 8 79 26 104 83
19 43 27 171 12 185 -4 4 -15 40 -25 80 -25 98 -94 233 -177 346 -77 103 -288
340 -331 371 -15 11 -43 54 -65 102 -21 46 -65 131 -98 191 -48 87 -57 113
-52 137 5 23 1 35 -19 55 -14 14 -31 25 -38 25 -7 0 -30 31 -51 70 -42 76
-165 266 -188 290 -8 8 -33 40 -56 70 -53 72 -228 241 -323 312 -94 71 -260
169 -366 218 -103 48 -232 93 -244 85 -5 -3 -20 1 -33 10 -14 9 -59 18 -108
22 -68 5 -90 11 -116 31 -18 13 -33 29 -33 34 0 16 93 117 128 139 32 20 34
20 52 4 11 -10 20 -23 20 -30 0 -6 13 -24 29 -40 26 -24 35 -27 72 -22 51 7
85 30 122 85 l28 42 29 -22 c23 -16 38 -20 72 -15 35 4 51 14 85 52 24 26 47
64 53 85 13 50 22 55 61 34 38 -19 92 -13 121 13 27 24 68 107 68 137 0 39 17
73 59 118 91 99 151 259 151 402 0 151 -39 255 -136 366 -65 76 -99 137 -109
200 -3 25 -8 52 -11 60 -3 13 10 18 61 27 82 14 148 52 188 110 31 44 33 45
72 36 89 -18 224 -2 258 31 6 6 30 23 52 36 62 37 144 119 187 185 59 91 82
177 76 292 -5 93 -6 96 -74 230 -63 123 -69 140 -71 202 -4 157 -117 338 -264
424 -56 33 -164 71 -277 97 -117 28 -273 26 -417 -6z m454 -75 c133 -20 231
-80 231 -144 0 -53 -28 -77 -92 -83 -71 -6 -116 9 -175 59 -53 44 -176 106
-265 135 -32 10 -58 21 -58 25 0 14 147 27 240 21 25 -1 78 -7 119 -13z m163
-410 c145 -61 207 -99 271 -168 89 -95 110 -180 58 -232 -37 -36 -79 -38 -141
-5 -37 20 -51 36 -81 94 -49 96 -128 200 -206 272 -55 50 -64 62 -53 75 7 8
16 15 21 15 5 0 64 -23 131 -51z m-483 -436 c170 -46 310 -179 311 -293 0 -51
-20 -82 -62 -98 -34 -13 -40 -12 -82 9 -61 30 -78 50 -124 144 -36 72 -80 137
-158 233 l-27 33 44 -7 c24 -3 69 -12 98 -21z m-641 -88 c57 -17 115 -62 138
-106 17 -34 18 -34 -32 -13 -61 25 -156 16 -236 -24 -69 -34 -159 -115 -192
-173 -15 -26 0 -16 63 44 126 120 234 158 353 123 70 -20 99 -43 148 -118 43
-64 45 -72 27 -132 l-12 -40 -33 51 c-18 28 -50 63 -72 78 -43 30 -53 43 -19
25 27 -15 34 -7 12 12 -50 43 -126 48 -217 14 -164 -59 -271 -172 -320 -335
-9 -30 -16 -67 -16 -83 0 -33 1 -33 -70 -8 -30 11 -66 19 -80 19 l-25 0 25
-14 c14 -8 34 -14 45 -15 67 -1 211 -110 262 -198 34 -57 35 -125 4 -175 -18
-29 -29 -37 -52 -37 -45 0 -64 14 -97 72 -40 70 -93 120 -167 156 -87 43 -137
55 -172 41 l-28 -12 38 -7 c20 -4 40 -9 43 -12 2 -3 -16 -30 -41 -59 -165
-193 -259 -442 -274 -729 l-6 -115 -30 42 c-28 40 -55 56 -55 33 0 -18 30 -70
77 -134 24 -34 47 -72 50 -86 11 -43 69 -133 127 -195 30 -33 55 -69 56 -79 0
-18 -94 -116 -111 -116 -3 0 -19 -18 -34 -40 -15 -22 -32 -37 -37 -34 -5 4 -8
34 -6 67 3 57 2 61 -21 67 -23 5 -24 8 -22 95 3 159 -46 281 -159 396 -94 95
-217 173 -352 224 -27 10 -48 18 -48 19 0 1 9 27 20 59 12 34 20 82 20 120 l0
64 52 6 c64 8 100 -8 113 -49 13 -40 33 -64 54 -64 28 0 59 -28 88 -80 15 -28
31 -50 36 -50 14 0 7 28 -19 74 -19 34 -24 53 -19 76 6 29 5 30 -19 24 -43
-10 -73 3 -85 37 -16 45 -14 123 4 166 22 53 19 60 -27 67 -105 17 -103 88 6
214 25 30 46 56 46 59 0 3 -13 21 -30 40 -16 18 -30 38 -30 42 0 18 89 129
132 164 24 20 75 51 113 68 59 28 82 33 172 37 74 3 101 8 94 15 -19 19 -12
34 52 107 125 145 315 267 480 310 91 24 243 26 315 5z m97 -309 c57 -26 94
-66 130 -136 47 -93 57 -255 20 -332 -33 -69 -47 -87 -114 -150 -55 -53 -79
-68 -120 -78 -88 -21 -201 6 -201 48 0 41 -49 120 -103 166 -73 62 -83 93 -62
178 60 232 282 383 450 304z m410 -245 c28 -18 76 -41 107 -53 52 -19 59 -24
68 -58 16 -59 24 -130 14 -130 -5 0 -38 9 -72 20 -41 13 -92 20 -143 20 -80 0
-86 3 -80 42 0 4 -11 15 -25 25 -23 14 -25 21 -20 55 4 23 2 38 -4 38 -15 0
-30 -45 -30 -90 0 -66 -18 -54 -26 17 -10 89 -11 241 -1 275 7 27 7 27 85 -51
42 -43 100 -93 127 -110z m-2566 82 c81 -39 107 -58 185 -137 193 -194 284
-425 274 -701 -5 -133 -15 -165 -54 -165 -13 0 -86 12 -162 26 -173 33 -396
38 -506 11 -38 -10 -71 -16 -73 -14 -2 2 8 29 21 59 87 196 124 375 107 516
-6 49 -20 114 -30 144 -41 118 -45 233 -9 275 22 27 70 43 113 37 22 -3 82
-26 134 -51z m2623 -334 c237 -51 389 -293 350 -559 -19 -136 -98 -272 -196
-339 l-45 -31 -28 57 c-36 75 -76 98 -198 113 -68 9 -123 8 -226 -1 -155 -14
-291 -2 -369 32 -95 42 -193 167 -207 264 -5 39 -2 51 22 85 19 28 35 40 51
40 13 0 31 9 40 19 72 85 66 82 156 79 46 -1 93 1 106 6 l23 8 -21 -42 c-12
-23 -19 -44 -17 -47 3 -2 40 37 82 88 113 137 193 194 310 224 64 17 101 18
167 4z m-1178 -177 c3 -5 -33 -83 -79 -175 -131 -260 -183 -457 -156 -590 32
-152 148 -292 294 -357 53 -23 77 -39 77 -51 0 -20 -21 -30 -40 -19 -8 5 -19
3 -26 -5 -10 -9 -24 -11 -51 -4 -21 4 -45 6 -54 3 -9 -2 -30 7 -47 21 -16 14
-35 25 -41 25 -11 0 -15 13 -12 38 1 7 -20 39 -47 70 -131 153 -146 193 -146
387 0 135 3 159 27 239 65 211 158 395 210 416 28 11 84 12 91 2z m-63 -502
c32 0 85 -57 114 -122 24 -52 29 -78 29 -143 1 -44 -3 -104 -7 -133 -7 -51 -7
-53 12 -43 29 16 41 64 41 162 0 49 3 89 8 89 14 0 61 -36 82 -63 12 -16 29
-49 36 -74 17 -56 19 -227 3 -217 -6 3 -23 -9 -38 -27 l-27 -32 -50 12 c-102
25 -245 144 -284 237 -34 79 -18 178 39 228 11 11 21 25 21 33 0 23 -41 6 -73
-30 l-27 -32 6 50 c4 28 13 65 20 84 13 30 17 33 45 27 17 -3 40 -6 50 -6z
m1255 -173 c19 -22 24 -39 24 -83 l0 -54 43 0 c23 0 53 7 66 16 23 16 23 16
16 -7 -17 -59 -49 -111 -77 -125 -28 -14 -32 -14 -73 10 -24 14 -48 26 -53 26
-6 0 -27 -36 -48 -81 -42 -89 -80 -129 -124 -129 -25 0 -31 6 -48 53 -26 68
-48 69 -74 3 -25 -65 -53 -103 -90 -122 -27 -14 -31 -14 -48 1 -10 9 -26 45
-36 81 -9 35 -19 64 -21 64 -2 0 -16 -13 -30 -30 -31 -37 -69 -42 -58 -7 4 12
9 46 12 75 5 49 4 52 -17 52 -12 0 -49 -16 -82 -35 -73 -43 -124 -65 -151 -65
-18 0 -19 5 -14 53 6 47 11 57 57 99 73 68 131 106 203 132 34 13 92 35 128
49 113 44 192 56 337 54 133 -2 134 -2 158 -30z m-732 -43 c9 -8 16 -17 16
-19 0 -2 -24 -18 -52 -35 -29 -18 -63 -41 -75 -52 -24 -22 -53 -18 -53 7 0 27
105 115 137 115 6 0 19 -7 27 -16z m-56 -608 c42 -36 77 -106 68 -140 -4 -15
-13 -29 -20 -32 -15 -6 -176 151 -176 172 0 7 10 15 23 17 52 10 77 6 105 -17z
m-801 -176 c-6 -19 -11 -73 -11 -120 -1 -72 3 -93 24 -134 31 -61 88 -110 159
-137 48 -18 70 -20 150 -16 81 5 97 3 120 -13 49 -36 168 -50 243 -30 55 16
132 81 158 135 13 26 26 71 29 100 l6 53 95 -118 c115 -143 170 -244 170 -312
0 -113 -118 -127 -274 -33 -32 20 -61 33 -64 30 -3 -3 16 -28 43 -55 53 -54
114 -88 179 -99 l41 -7 3 -89 c3 -93 -21 -252 -42 -278 -7 -9 -59 -21 -136
-31 -69 -9 -186 -28 -260 -41 -179 -32 -313 -45 -479 -45 -135 0 -138 1 -330
55 -107 30 -218 58 -248 61 -57 7 -64 17 -39 57 8 12 29 63 46 112 29 79 33
103 34 200 0 61 -3 124 -7 140 -7 29 -5 32 30 44 61 22 157 127 201 218 36 75
37 82 38 190 l1 112 35 39 c31 34 75 126 79 165 1 7 5 -17 10 -53 5 -42 4 -77
-4 -100z m1056 75 c113 -20 220 -59 382 -140 151 -76 275 -161 397 -275 155
-144 279 -316 481 -665 187 -326 291 -549 327 -703 28 -122 42 -31 15 99 -9
40 -13 75 -9 78 7 7 93 -84 176 -188 195 -243 275 -427 266 -612 -4 -92 -16
-109 -77 -109 -45 0 -48 2 -95 75 -85 131 -214 252 -289 270 -43 11 -32 -7 42
-67 96 -78 174 -176 227 -283 89 -180 82 -336 -18 -420 -51 -44 -95 -58 -163
-53 -104 7 -155 48 -161 133 -5 66 -38 132 -92 188 -64 67 -131 112 -144 99
-7 -7 18 -42 80 -112 97 -107 109 -134 99 -211 -7 -49 -29 -68 -83 -69 -86 0
-276 80 -388 165 -84 63 -86 70 -27 90 59 19 101 59 61 57 -3 0 -78 -5 -167
-12 -135 -9 -192 -8 -345 5 -274 23 -648 71 -792 101 l-28 6 40 42 c36 37 62
75 62 90 0 13 -28 5 -41 -11 -26 -31 -104 -74 -182 -98 -84 -27 -242 -49 -263
-37 -10 5 1 29 42 91 50 78 66 121 45 121 -5 0 -35 -30 -67 -67 -201 -233
-330 -337 -546 -441 -226 -109 -423 -119 -639 -31 -81 32 -135 76 -145 116
-17 68 63 143 269 249 173 90 246 150 308 255 23 38 59 89 81 114 22 25 38 49
34 52 -13 13 -54 -17 -106 -77 -148 -169 -188 -202 -330 -274 -169 -86 -226
-124 -296 -195 l-55 -56 -102 1 c-116 1 -162 11 -266 61 -55 26 -95 56 -162
121 -97 95 -108 121 -66 160 30 29 61 39 142 47 226 23 378 87 593 250 119 89
202 185 162 185 -5 0 -45 -27 -88 -59 -174 -131 -422 -274 -493 -285 -19 -2
-87 -10 -152 -16 -136 -13 -147 -9 -147 50 0 56 37 93 144 147 174 87 268 171
480 431 118 145 150 171 241 197 72 20 113 44 184 109 l54 49 91 -6 c50 -3
114 -12 141 -20 28 -8 156 -42 285 -76 348 -92 488 -133 664 -196 87 -31 161
-53 165 -50 22 23 -154 108 -365 176 -85 28 -154 54 -154 58 0 4 51 13 113 19
61 7 202 28 313 47 445 76 629 68 852 -35 35 -16 62 -25 60 -18 -6 18 -127 87
-185 105 -28 9 -50 20 -47 25 8 13 74 9 128 -7 60 -18 69 -13 25 15 -59 35
-107 44 -169 29 -57 -13 -259 -14 -271 -1 -4 4 -1 57 7 117 10 69 13 138 9
186 -6 63 -4 79 10 92 9 10 20 17 25 17 4 0 18 20 30 45 44 91 -3 214 -146
380 -47 55 -93 114 -101 130 -9 17 -29 49 -46 73 l-31 42 22 30 c12 16 22 36
22 45 0 27 20 55 38 55 9 0 57 -7 105 -15z"/>
<path d="M4396 5187 c-10 -7 -26 -39 -37 -71 -19 -58 -19 -59 1 -104 11 -24
20 -50 20 -58 0 -22 20 -27 44 -11 36 24 50 95 30 147 -9 22 -14 52 -11 65 6
32 -22 50 -47 32z"/>
<path d="M4119 2713 c-27 -75 -34 -90 -56 -121 -49 -66 -123 -91 -207 -71 -38
9 -61 24 -101 63 -28 28 -59 62 -69 76 l-17 25 5 -33 c9 -51 55 -121 98 -148
79 -50 196 -50 270 0 18 12 48 43 66 70 27 41 32 57 32 107 0 65 -5 73 -21 32z"/>
<path d="M3184 5934 c-37 -55 25 -116 84 -83 56 31 32 109 -34 109 -25 0 -38
-7 -50 -26z"/>
<path d="M3667 5922 c-35 -38 -5 -102 48 -102 31 0 65 33 65 63 0 51 -78 77
-113 39z"/>
<path d="M2730 5887 c-27 -14 -35 -36 -26 -72 11 -42 77 -50 109 -13 22 27 22
53 -3 78 -23 23 -45 25 -80 7z"/>
<path d="M2261 5724 c-25 -32 -26 -43 -5 -72 10 -15 25 -22 48 -22 59 0 87 59
46 100 -28 28 -64 25 -89 -6z"/>
<path d="M1840 5500 c-24 -24 -25 -48 -4 -78 31 -45 114 -15 114 41 0 52 -71
76 -110 37z"/>
<path d="M1500 5222 c-50 -16 -65 -67 -29 -103 27 -27 67 -21 93 14 19 26 19
30 6 54 -16 28 -46 43 -70 35z"/>
<path d="M5327 5042 c-35 -38 -6 -112 43 -112 28 0 60 35 60 65 0 54 -69 85
-103 47z"/>
<path d="M1164 4852 c-23 -15 -34 -50 -25 -75 10 -26 29 -37 65 -37 48 0 75
70 40 104 -16 17 -61 21 -80 8z"/>
<path d="M5606 4648 c-20 -28 -20 -48 0 -76 12 -18 24 -22 52 -20 83 7 73 117
-10 118 -17 0 -33 -9 -42 -22z"/>
<path d="M906 4428 c-20 -28 -20 -48 0 -76 22 -31 70 -26 97 9 17 24 18 30 6
55 -19 40 -79 47 -103 12z"/>
<path d="M5819 4219 c-27 -27 -21 -66 12 -92 24 -17 30 -18 55 -6 22 11 30 22
32 48 6 62 -55 94 -99 50z"/>
<path d="M761 3997 c-61 -30 -43 -117 24 -117 61 0 85 61 40 105 -28 29 -31
29 -64 12z"/>
<path d="M5947 3762 c-35 -38 -6 -112 43 -112 29 0 60 35 60 68 0 55 -68 83
-103 44z"/>
<path d="M657 3512 c-18 -19 -22 -59 -9 -78 16 -24 51 -35 75 -23 29 16 37 28
37 61 0 53 -68 79 -103 40z"/>
<path d="M5995 3286 c-29 -30 -32 -65 -7 -96 22 -27 67 -30 90 -6 20 20 21 82
2 100 -30 28 -58 29 -85 2z"/>
<path d="M667 3039 c-49 -38 -26 -109 36 -109 33 0 57 24 57 59 0 57 -50 84
-93 50z"/>
<path d="M5980 2812 c-49 -15 -66 -74 -32 -105 42 -38 102 -8 102 50 0 40 -34
67 -70 55z"/>
<path d="M740 2565 c-20 -24 -17 -75 6 -92 30 -22 76 -12 94 20 13 24 13 30 0
55 -19 33 -78 43 -100 17z"/>
<path d="M915 2115 c-28 -27 -30 -37 -14 -68 16 -29 28 -37 61 -37 29 0 58 31
58 63 0 22 -43 67 -65 67 -9 0 -27 -11 -40 -25z"/>
<path d="M1175 1718 c-27 -15 -35 -28 -35 -59 0 -52 69 -79 103 -41 18 19 22
59 9 78 -6 10 -46 34 -54 34 -2 0 -12 -6 -23 -12z"/>
<path d="M1464 1335 c-14 -21 -14 -30 -4 -55 22 -53 102 -50 116 5 16 65 -75
106 -112 50z"/>
</g>
</svg>
