<svg fill="none" xmlns="http://www.w3.org/2000/svg" viewBox="8 43.3 280 63.1"><g fill="#000"><path d="M93.2 68.4a11.2 11.2 0 00-18-1.2l-4-3c1-.5 3-1.4 3.2-2 0-.3-1-.5-2.6-.7l7.5-6.8a.2.2 0 000-.2l-1.9-3.7a.1.1 0 00-.2 0L69.3 58c-2.3 0-6.5.3-7.7-.5-1.9-1.2-2.1-3-2.8-3.6s-1.5-.7-1.7-1.2v-.1c.4-.1 2.4-.7 3-2.1.4-1.5-.6-3.4-.7-3.7v-.1l2.1-2-3.2.4c-.2-.3-1.5-1.8-4.1-.7-3.1 1.2-2.5 3.8-2.5 3.8.4 2.8 1.3 3.3 2.9 4.2v.1c-1 .8-11 9-20.3 12.3a.2.2 0 000 .3 23 23 0 0013-.8h.1c-.2 1-1.6 6.8.6 8.6l.2.1-3 2.2a.8.8 0 00.5 1.3l1.5-.1A4.4 4.4 0 0050 75l.5-.5 4.3 3.3-.6 4.5a11.2 11.2 0 109.3 6l1-.8a2.7 2.7 0 004.5-2.8l4.6-1.3a.7.7 0 00.5-.9v-.1a.7.7 0 00-.7-.6h-3.9l-1.2-2.7 2.4-13.6 3.7 2.8a11.2 11.2 0 1019 0zm-31.1-8l5.3-.2.7 1.3-3.7.3c-1 .1-2-1-2.3-1.4zm-8 7.8c.4-.7 3-5 3.3-6.4h.1c1.7 2 5.3 3.1 5.6 3.2l4.7-1.4 1 .7-4.8 4.5a3.3 3.3 0 00-2-.9c-2.7-.3-7 .3-7.9.4zM66 83a2.6 2.6 0 00-1 .2L62 80.6v-.1l1.6-3.4h.1l2.8 4.2zM59 79l-2.3-1.7 4.3-4zm0-5.8l-3.6 3.2-3.6-2.6c2.4 0 4.8-.2 7.2-.6zm-3 5.6l2.4 1.7-.3.8a1 1 0 00.7 1.3l4.8 1.8.2.1a2.8 2.8 0 00-.1 1.7l-1.1.7a11.2 11.2 0 00-7-4.4zm-.7 6a9 9 0 015.3 3.4l-6.2 4zm3 16.3A9 9 0 1154 84.8l-1 8.9a.8.8 0 001 .7l7.6-4.9a9 9 0 01-3.1 11.7zM65 72a4.8 4.8 0 00-.2-1.9l4.1-3.7-1.8 10.4zm23.6 10a9 9 0 01-12.4-12.2l7 5.3a.8.8 0 001 0 .8.8 0 000-1.3L77 68.5A9 9 0 1188.5 82z"/><path d="M65.9 56.1l2.6.2a.5.5 0 00.3-.1l6.5-6a.1.1 0 00-.1-.3l-2.6-.1a.7.7 0 00-.5.1l-6.3 6a.1.1 0 000 .2zm-34.2 38l-4.2 2.5-3.9-3.2 1.3 5-4 2.6 4.8.5 1.5 4.9 1.8-4.6 4.9.3-3.8-3.3zm4.8-17.6L32.4 79l-4-3.2 1.3 4.9-4 2.7 4.9.5 1.4 4.8 1.8-4.5 4.9.3-3.8-3.4zm-19.3 9.4l1.6-4.6-4.1 2.5-4-3.2 1.3 4.9-4 2.7 4.9.5 1.4 4.9 1.8-4.6 5 .3zm91.8 2.6V60h11.8c5.1 0 8.5 3.7 8.5 8.7s-3.4 8.7-8.5 8.7h-7.3v11.1zm4.5-24.6v9.6h7.1c2.3 0 4.1-2.3 4.1-4.8 0-2.6-1.8-4.8-4-4.8zm38.6 18.6a171 171 0 014.3-.8c.3 1.7 1.3 3.6 4.5 3.6.8 0 4.4-.3 4.4-2.9 0-4.9-12.6.2-12.6-8.6 0-3.5 3.5-6.1 7.9-6.1s8 1.8 8.7 6.4l-4.3.8c-.3-2.6-1.9-3.5-4.3-3.5-2.1 0-3.6 1.1-3.6 2.4 0 1.7 1.5 2.1 4 2.3 4.6.5 8.5 1.5 8.5 6.3 0 4.3-3.7 6.6-8.7 6.6-5.2 0-8.2-2.8-8.8-6.5zm18.6-11.1V68h3.6v-6h4.3v6h4.3v3.4h-4.3V83c0 1.6.5 2.1 1.9 2.1h2v3.5l-3.2.1c-3.8 0-5-2-5-6V71.4zm27.4 5.7c0-3.1-.7-5.7-4-5.7-3 0-4 2.6-4 5.7v11.4h-4.3V68.1h4l.4 2.2c.6-1.1 3-2.6 5.4-2.6a6.2 6.2 0 013.3.7 6.2 6.2 0 012.4 2.3c1.1-1.8 3.7-3 6.1-3 5.6 0 7.3 3.4 7.3 9.5v11.4h-4.3V77c0-3-.8-5.8-4-5.8s-4 2.7-4 5.8v11.4h-4.3zm24.6-2l-4.4-.8c.5-4.5 4.2-6.7 8.5-6.7 5.8 0 8.8 2.8 8.8 8.5v7.1c0 1.2.2 2 1 2l1.1-.2v3.5a9.3 9.3 0 01-2.6.4 3.4 3.4 0 01-3.5-3 8.5 8.5 0 01-6.4 3c-4.8 0-7.6-2.6-7.6-6.4 0-3.2 3-6.2 8.4-6.2h5.2v-1.2c0-1.6-.6-3.7-4.4-3.7-2.5 0-4 1.2-4.1 3.7zm8.5 5.5v-1h-4.8c-3.6 0-4.3 1.9-4.3 2.8 0 1.4 1 2.8 3.6 2.8 3.5 0 5.6-2.4 5.6-4.6zM140 89a10.6 10.6 0 01-9.8-6.6 10.7 10.7 0 012.3-11.6 10.6 10.6 0 0111.6-2.3 10.7 10.7 0 014.8 3.9 10.7 10.7 0 011.8 6A10.7 10.7 0 01139.9 89zm0-17.3a6.6 6.6 0 00-3.7 1.1 6.6 6.6 0 00-2.8 6.8 6.6 6.6 0 001.8 3.4 6.6 6.6 0 007.2 1.4 6.6 6.6 0 004.1-6c0-1.8-.7-3.5-2-4.8s-2.8-1.9-4.6-1.9zm125 9.7l4 1.2c-1 3-3.7 6.4-9.3 6.4s-9.6-4.4-9.6-10.7c0-6.3 3.7-10.7 9.4-10.7s9.2 3.8 9.2 10v2h-14.1c0 3 2.1 5.7 5.1 5.7a5.4 5.4 0 003.3-1 5.4 5.4 0 002-2.9zm-1-5c0-3.1-1.5-5-4.5-5s-4.6 2.3-4.7 5zm6.6 6.2l4.3-.9c.3 1.7 1.3 3.6 4.5 3.6.8 0 4.4-.3 4.4-2.9 0-4.9-12.6.2-12.6-8.6 0-3.5 3.5-6.1 7.9-6.1s8 1.8 8.7 6.4l-4.3.8c-.3-2.6-1.9-3.5-4.3-3.5-2.1 0-3.6 1.1-3.6 2.4 0 1.7 1.5 2.1 4 2.3 4.6.5 8.5 1.5 8.5 6.3 0 4.3-3.7 6.6-8.7 6.6-5.2 0-8.2-2.8-8.8-6.4zm-33.4-11.2V68h3.5v-6h4.4v6h4.2v3.4H245V83c0 1.6.4 2.1 1.9 2.1h1.9v3.5l-3.1.1c-3.9 0-5.1-2-5.1-6V71.4z"/></g></svg>